<svg id="Layer_1" data-name="Layer 1" xmlns="http://www.w3.org/2000/svg" width="425.2" height="425.2" viewBox="0 0 425.2 425.2">
  <defs>
    <style>
      .cls-1 {
        fill: #fff;
      }
    </style>
  </defs>
  <g>
    <rect x="-5" y="-5" width="435.2" height="435.2"/>
    <path class="cls-1" d="M323.85,392.2H181.39v-39c0-1.71.05-3.49.14-5.54H96.92v-39c0-46.1,24.79-73.16,48.77-99.33,24.45-26.68,47.54-51.88,47.54-95.88,0-24.38-7-34.33-24.18-34.33-16.29,0-24.21,9.65-24.21,29.48v34.12H96.92v-31C96.92,61,123,33,170.34,33,206,33,229.76,48.78,239.2,78.65a104.62,104.62,0,0,1,15.61-1.13c47.38,0,73.47,28,73.47,78.72,0,56.78-33.38,93.51-60.2,123-19.61,21.58-36.54,40.21-36.54,61.13a37.46,37.46,0,0,0,.28,5.64h92Zm-140.46-2H321.85V348h-91.7l-.16-.81a35.37,35.37,0,0,1-.45-6.83c0-21.69,17.17-40.59,37.06-62.47,28-30.79,59.68-65.69,59.68-121.69,0-24.57-6.08-43.65-18.08-56.73-12.16-13.26-30.13-20-53.39-20a102.14,102.14,0,0,0-16.15,1.23l-.86.14-.25-.83C228.57,50.58,205.33,35,170.34,35,147.1,35,129.15,41.73,117,55c-12,13.08-18.07,32.17-18.07,56.74v29h43.92V108.65c0-20.89,8.82-31.48,26.21-31.48,18.35,0,26.18,10.87,26.18,36.33,0,44.78-24.44,71.45-48.07,97.24s-48.24,52.65-48.24,98v37h84.7l-.05,1.05c-.12,2.46-.18,4.53-.18,6.49ZM195,303.54h-49.3l-.16-.81a35.32,35.32,0,0,1-.45-6.83c0-21.69,17.17-40.59,37.06-62.49,25.6-28.17,54.61-60.11,59.09-108.83l.05-.61.56-.23a30.86,30.86,0,0,1,11.7-2.07c7.17,0,12.62,1.66,16.65,5.07,16.76,11.54,12.43,39,5.83,60-7.61,28.37-26.31,48.79-44.39,68.53C218.3,269.8,204.53,284.84,195.25,303Zm-47.64-2h46.41c9.39-18.15,23.12-33.14,36.4-47.64,17.91-19.56,36.44-39.8,43.94-67.74,11.61-36.9,3.62-51.81-5.13-57.84-3.73-3.14-8.75-4.65-15.43-4.65a29.53,29.53,0,0,0-10.38,1.7c-4.72,49-33.84,81.1-59.54,109.39C164,256.34,147.07,275,147.07,295.9a38.83,38.83,0,0,0,.27,5.64"/>
  </g>
</svg>
