<svg id="Layer_1" data-name="Layer 1" xmlns="http://www.w3.org/2000/svg" xmlns:xlink="http://www.w3.org/1999/xlink" width="425.2" height="425.2" viewBox="0 0 425.2 425.2">
  <defs>
    <style>
      .cls-1 {
        fill: none;
      }

      .cls-2 {
        clip-path: url(#clip-path);
      }
    </style>
    <clipPath id="clip-path">
      <rect class="cls-1" width="425.2" height="425.2"/>
    </clipPath>
  </defs>
  <g class="cls-2">
    <g class="cls-2">
      <path d="M224.7,330c0-50.77,96.73-87,96.73-184.16,0-49.45-24.74-77.72-72.46-77.72a102.65,102.65,0,0,0-16.31,1.25c-9-29.48-31.94-45.77-68.16-45.77-47.68,0-72.42,28.28-72.42,77.74v30H138V98.23c0-22.08,9.74-30.48,25.21-30.48s25.17,7.51,25.17,35.33c0,89.22-96.3,104.23-96.3,195.21v38h84.65c-.11,2.13-.18,4.31-.18,6.54v38H317V336.62H225.13a34.52,34.52,0,0,1-.43-6.64m-84-37.86a33.75,33.75,0,0,1-.44-6.64c0-48.45,88.1-83.68,96.15-171.23a29.69,29.69,0,0,1,11.32-2c6.4,0,11.84,1.31,16,4.83,9.36,6.45,17.16,21.94,5.52,58.92-13.15,49-58.74,73.16-80.69,116.12Z"/>
    </g>
  </g>
</svg>
