<svg id="Layer_2" data-name="Layer 2" xmlns="http://www.w3.org/2000/svg" width="759.3" height="569.2" viewBox="0 0 759.3 569.2">
  <defs>
    <style>
      .cls-1, .cls-2, .cls-3, .cls-5, .cls-6 {
        stroke: #fff;
      }

      .cls-1, .cls-5, .cls-6 {
        stroke-miterlimit: 10;
      }

      .cls-2, .cls-3 {
        stroke-linecap: round;
        stroke-linejoin: round;
      }

      .cls-3, .cls-5, .cls-6 {
        fill: none;
      }

      .cls-4 {
        fill: #fff;
      }

      .cls-6 {
        stroke-dasharray: 6.98 6.98;
      }
    </style>
  </defs>
  <g>
    <g>
      <polygon class="cls-1" points="341.34 467.87 340.17 492.79 322.35 491.1 322.04 470.35 341.34 467.87"/>
      <g>
        <path class="cls-1" d="M324.68,486.94a3,3,0,0,0,1.33-3.19,17.18,17.18,0,0,0-2.21-4.34L298.24,491.1"/>
        <path class="cls-1" d="M321.88,483.75l-29.47,9.16s-7.66,1.57-9,2.87,0,8.39.4,8.42c1.82.15,7.8.39,21.92.78s36.2,0,36.2,0,1.83-14.44-1.83-17.34C338.3,489.47,331.73,496.46,321.88,483.75Z"/>
        <path class="cls-1" d="M342.32,499s-32.05,1.57-43.51,1c-13.8-.69-15.91-.74-15.91-.74"/>
        <path class="cls-1" d="M292.41,492.91s-2.83,3.9-2.83,6.66"/>
        <line class="cls-1" x1="320.03" y1="487.54" x2="318.6" y2="485.25"/>
        <line class="cls-1" x1="315.92" y1="489.16" x2="314.31" y2="486.55"/>
        <line class="cls-1" x1="311.76" y1="490.82" x2="310.08" y2="487.76"/>
      </g>
      <path class="cls-1" d="M346,354.68,344.3,463.49s-15.07,5.28-26.22.78l-3.72-114.95Z"/>
      <path class="cls-1" d="M314.83,460.7c4.14.35,20.67,1.55,29.52-.79v10.16s-8.64,4.21-26.86.94c0,0-4.24-5.78-4-9.16A1.24,1.24,0,0,1,314.83,460.7Z"/>
    </g>
    <g>
      <polygon class="cls-1" points="357.92 467.87 359.09 492.79 376.91 491.1 377.23 470.35 357.92 467.87"/>
      <g>
        <path class="cls-1" d="M374.58,486.94a3,3,0,0,1-1.33-3.19,17.18,17.18,0,0,1,2.21-4.34L401,491.1"/>
        <path class="cls-1" d="M377.38,483.75l29.47,9.16s7.66,1.57,9,2.87,0,8.39-.4,8.42c-1.83.15-7.8.39-21.92.78s-36.2,0-36.2,0-1.83-14.44,1.83-17.34C361,489.47,367.53,496.46,377.38,483.75Z"/>
        <path class="cls-1" d="M356.93,499s32.06,1.57,43.51,1c13.81-.69,15.92-.74,15.92-.74"/>
        <path class="cls-1" d="M406.85,492.91s2.83,3.9,2.83,6.66"/>
        <line class="cls-1" x1="379.23" y1="487.54" x2="380.66" y2="485.25"/>
        <line class="cls-1" x1="383.34" y1="489.16" x2="384.95" y2="486.55"/>
        <line class="cls-1" x1="387.5" y1="490.82" x2="389.18" y2="487.76"/>
      </g>
      <path class="cls-1" d="M353.43,354.68l1.66,108.81s15.07,5.28,26.23.78L385,349.32Z"/>
      <path class="cls-1" d="M384.57,460.7c-4.14.35-20.68,1.55-29.53-.79v10.16s8.64,4.21,26.86.94c0,0,4.24-5.78,4-9.16A1.23,1.23,0,0,0,384.57,460.7Z"/>
    </g>
    <g>
      <path class="cls-2" d="M395.37,310.21s.56,3.68,2.83,3.47,3-19,2.23-23.7C399.57,284.57,395.37,310.21,395.37,310.21Z"/>
      <path class="cls-2" d="M382.49,201.34s5.12,73.32,6.08,83.49c0,0-8,9.48-8.09,13.24s-.78,11.42,1.55,11.42,3.44-7,3.55-10.64l3.88-3.66a20.92,20.92,0,0,1,.55,8.87c-.78,4.76-4.43,8.53-3.32,11s3.76.66,4.54-1.22c0,0,1.44,3,3.66,1a9.26,9.26,0,0,0,1.44-2.55s3.76-14.41,4.1-22.28,0-65.48,0-65.48-.65-21-.6-24.89C389.05,202.44,382.49,201.34,382.49,201.34Z"/>
      <path class="cls-3" d="M391.23,313.81A76.68,76.68,0,0,0,394,296.48"/>
    </g>
    <path class="cls-2" d="M335.28,139.27s14.65-7.84,30.71,0l-6,5.31-20.35-.4Z"/>
    <path class="cls-2" d="M343.18,130a20.8,20.8,0,0,1-2.47,11.4s.35,3.05,8.3,3.19,12.47-3.32,12.47-3.32a17.1,17.1,0,0,1-3.32-10.74C358.56,124.42,343.18,130,343.18,130Z"/>
    <path class="cls-2" d="M318.59,67.09s10,4.4,32.83,4.27,33.23-4.27,33.23-4.27L358.29,55.67Z"/>
    <path class="cls-2" d="M323.48,63.11l1-8.61s2.45-3.21,28.28-3,26.73,4.12,26.73,4.12V62S336.71,59,323.48,63.11Z"/>
    <path class="cls-1" d="M323.66,63.44a1.09,1.09,0,0,0-.88,1.18l2.3,21.24,5.66,42.79s1.54,4.5,19.53,4.63,22-4,22-4l9-64.47a1.07,1.07,0,0,0-.85-1.21A164,164,0,0,0,323.66,63.44Z"/>
    <path class="cls-1" d="M322.89,79.47a134.24,134.24,0,0,1,56.33,0s1.38,0,.81,4.26-4.86,28.57-4.86,28.57,0,2-5.23,3.26a87.53,87.53,0,0,1-18.41,1.86c-5.47,0-17.32-1-22.21-3.49-1.58-.69-1.85-3.53-2.49-6.68s-3.94-25.35-3.94-25.35S322.41,79.56,322.89,79.47Z"/>
    <path class="cls-4" d="M354.49,108.44c-.35-4.66,8.27-8.65,7.59-17.55-.34-4.54-2.8-7-7.18-6.62a9.7,9.7,0,0,0-1.49.22c-1-2.64-3.24-4-6.56-3.72-4.37.33-6.44,3.1-6.1,7.63l.21,2.75,4.21-.32-.23-3c-.15-2,.68-2.86,2.1-3s2.36.51,2.55,3.06c.62,8.18-8.1,10.22-7.47,18.56l.26,3.48,7.76-.58c0,.19,0,.39,0,.6l.26,3.48,12.88-1-.31-4-8.42.63a3.11,3.11,0,0,1-.09-.6m-8-2.89a3.11,3.11,0,0,1-.09-.6c-.33-4.45,7.5-8.29,7.63-16.37a2.83,2.83,0,0,1,1-.26,2.24,2.24,0,0,1,1.5.33c.9.53,1.72,1.9.91,5.37-.86,4.58-4.87,7.11-6.59,11.2Z"/>
    <path class="cls-2" d="M318.59,67.09s4.89-4,33.67-4,32.39,4,32.39,4V62.47s-6-4.37-33-3.73-32.26,3.6-32.26,3.6Z"/>
    <path class="cls-2" d="M390.52,161c-2.92-3.85-12.6-7.83-19.1-12.86s-5.43-8.89-5.43-8.89a62,62,0,0,1-15.36,2.58,62,62,0,0,1-15.35-2.58s1.06,3.85-5.44,8.89-16.18,9-19.1,12.86-13,9.42-14.53,37.73c0,0,11.51,4.28,23.81,2.13l30.61-3,30.62,3a40.75,40.75,0,0,0,21.81-2.13C401.49,170.44,393.44,164.86,390.52,161Z"/>
    <line class="cls-3" x1="381.06" y1="154.31" x2="378.66" y2="184.84"/>
    <line class="cls-3" x1="371.28" y1="185.34" x2="373.33" y2="149.74"/>
    <line class="cls-3" x1="328.6" y1="149.08" x2="329.49" y2="184.84"/>
    <line class="cls-3" x1="320.36" y1="154.21" x2="322.11" y2="185.34"/>
    <path class="cls-2" d="M302.66,348.86s.42-44.69,4.21-86.44A536.16,536.16,0,0,1,320.36,184h59.88s9.08,63.42,10.33,86.19,4.14,78.67,4.14,78.67a105.11,105.11,0,0,1-46,10.74C311.5,359.61,302.66,348.86,302.66,348.86Z"/>
    <g>
      <path class="cls-1" d="M307.71,278.1s14.8,4.6,41.85,3.58,41.12-6,41.12-6"/>
      <g>
        <path d="M307.71,274.75s14.8,4.59,41.85,3.57,41.12-6,41.12-6"/>
        <g>
          <path class="cls-5" d="M307.71,274.75s1.15.35,3.39.85"/>
          <path class="cls-6" d="M318,276.84a172.71,172.71,0,0,0,31.59,1.48,186.45,186.45,0,0,0,34.37-4.17"/>
          <path class="cls-5" d="M387.32,273.3c2.23-.59,3.36-1,3.36-1"/>
        </g>
      </g>
      <path class="cls-1" d="M374,279.32s-3.34,15.14,17.59,14.38"/>
      <path class="cls-1" d="M327.22,281.32s2.46,15.12-18.47,14.35"/>
    </g>
    <g>
      <path class="cls-2" d="M303.46,310.21s-.57,3.68-2.84,3.47-3-19-2.22-23.7C299.26,284.57,303.46,310.21,303.46,310.21Z"/>
      <path class="cls-2" d="M316.33,201.34s-5.12,73.32-6.08,83.49c0,0,8,9.48,8.09,13.24s.78,11.42-1.55,11.42-3.44-7-3.55-10.64l-3.87-3.66a21,21,0,0,0-.56,8.87c.78,4.76,4.43,8.53,3.33,11s-3.77.66-4.55-1.22c0,0-1.44,3-3.65,1a9,9,0,0,1-1.44-2.55s-3.77-14.41-4.1-22.28,0-65.48,0-65.48.65-21,.59-24.89C309.77,202.44,316.33,201.34,316.33,201.34Z"/>
      <path class="cls-3" d="M307.59,313.81a77.36,77.36,0,0,1-2.79-17.33"/>
    </g>
    <g>
      <path class="cls-4" d="M323.13,175.48l4,.38,0-.57-.74-.06,0-.57.72-.15,0-.56-3.92.87Zm2.69-.71,0,.42-1.48-.12Z"/>
      <path class="cls-4" d="M325,179.43a1.86,1.86,0,0,0-.61,0h-.1a1.24,1.24,0,0,0-.76.23.84.84,0,0,0-.2.71l0,.81,2.08-.11v-.17a.65.65,0,0,0,.27.15,2.26,2.26,0,0,0,.62,0h.1a1.27,1.27,0,0,0,.76-.23.88.88,0,0,0,.2-.71l-.05-.81-2.08.11v.18a.52.52,0,0,0-.27-.15m.1.59a.31.31,0,0,1,.05.19v.26l-1.34.08v-.23a.4.4,0,0,1,0-.2c0-.09.21-.15.48-.16h.61a.3.3,0,0,1,.18.07m1.17.46a3.53,3.53,0,0,1-.47,0,.25.25,0,0,1-.18-.07.29.29,0,0,1-.05-.19l0-.26,1.35-.08v.23a.29.29,0,0,1,0,.2c0,.1-.2.15-.48.17Z"/>
      <polygon class="cls-4" points="322.77 168.6 322.81 169.23 324.63 169.97 322.85 170.07 322.89 170.66 326.85 170.44 326.82 169.85 325.63 169.92 325.02 169.63 326.76 168.85 326.73 168.25 324.44 169.3 322.77 168.6"/>
      <polygon class="cls-4" points="323.26 177.8 323.29 178.39 327.24 178.17 327.17 176.88 326.66 176.91 326.7 177.61 323.26 177.8"/>
      <path class="cls-4" d="M325.72,172a1.84,1.84,0,0,1,.58,0,.16.16,0,0,1,.14.16.17.17,0,0,1-.12.18,2.31,2.31,0,0,1-.58.09l-1.65.09a1.44,1.44,0,0,1-.51,0,.18.18,0,0,1-.11-.28.4.4,0,0,1,.13-.08,2.12,2.12,0,0,1,.47-.06l.4,0,0-.58-.39,0a2.69,2.69,0,0,0-.68.12.7.7,0,0,0-.45.73.78.78,0,0,0,.27.58.93.93,0,0,0,.33.15,1.87,1.87,0,0,0,.67,0l1.59-.08a1.83,1.83,0,0,0,.9-.24.79.79,0,0,0-.06-1.27,1.76,1.76,0,0,0-.93-.12l-.39,0,0,.58Z"/>
    </g>
  </g>
</svg>
