<svg id="Layer_2" data-name="Layer 2" xmlns="http://www.w3.org/2000/svg" width="759.3" height="569.2" viewBox="0 0 759.3 569.2">
  <defs>
    <style>
      .cls-1, .cls-2, .cls-3, .cls-5, .cls-6, .cls-7 {
        stroke: #fff;
      }

      .cls-1, .cls-5, .cls-6 {
        stroke-miterlimit: 10;
      }

      .cls-2, .cls-3, .cls-5, .cls-6, .cls-7 {
        stroke-linecap: round;
      }

      .cls-2, .cls-3, .cls-7 {
        stroke-linejoin: round;
      }

      .cls-3, .cls-6, .cls-7 {
        fill: none;
      }

      .cls-4 {
        fill: #fff;
      }

      .cls-7 {
        stroke-width: 1.5px;
      }
    </style>
  </defs>
  <g>
    <g>
      <path class="cls-1" d="M368.12,482.41s-5.54,29,0,29c2.9,0,37.58,0,48.79-.47,10.13-.42,3-16.42-15.75-16.89a66.33,66.33,0,0,0-9.34-10.8C386.38,478.33,368.12,482.41,368.12,482.41Z"/>
      <path class="cls-1" d="M365.75,506.52s17.74,1.8,55.27-1.11"/>
      <line class="cls-1" x1="404.23" y1="496.45" x2="405.51" y2="494.41"/>
      <line class="cls-1" x1="407.89" y1="497.89" x2="409.33" y2="495.56"/>
      <line class="cls-1" x1="411.6" y1="499.36" x2="413.1" y2="496.64"/>
    </g>
    <g>
      <path class="cls-1" d="M349.33,482.55s5.48,28.21,0,28.82c-3.63.4-43.31-.41-48.65-.25-10.13.3-3.2-16.71,15.57-17.08a66.75,66.75,0,0,1,9.4-10.75C331.1,478.37,349.33,482.55,349.33,482.55Z"/>
      <path class="cls-1" d="M351.76,506.52s-20.9,0-55.45.44"/>
      <line class="cls-1" x1="313.45" y1="496.45" x2="312.17" y2="494.41"/>
      <line class="cls-1" x1="309.79" y1="497.89" x2="308.36" y2="495.56"/>
      <line class="cls-1" x1="306.08" y1="499.36" x2="304.58" y2="496.64"/>
    </g>
    <path class="cls-1" d="M397.34,284.53s2.12,27.22,2.32,48.24,3.7,151.4,3.7,151.4a61.2,61.2,0,0,1-21.48,4c-12,0-18-1.5-18-1.5l-2.8-164h-3s-6.45,112.07-6.23,122.66,0,41,0,41-7.72,3.08-22.44,3.06c-7.21,0-18.22-3.27-18.22-3.27s5.93-112.8,7.63-129.11,6.59-72.48,6.59-72.48Z"/>
    <g>
      <path class="cls-1" d="M427.78,318.07s2.17,9.87,2,13.83-3.13,4.79-3.13,4.79Z"/>
      <path class="cls-1" d="M399.66,236.66l5.22,26.85a130.63,130.63,0,0,0,2.48,19.88c2,8.45,7.22,30.26,7.22,30.26s-2.28,1.87-2.73,11c-.15,2.93-1,8.1,1.73,8.24s1.73-7.36,3-9c.55-.66,3.13-3.67,3.26-3l1.51,11.41s-1.88,5.63-2,7.65-.58,4.77,2,2.89c0,0,1,.43,2.74-1.88s2.75-3.74,2.75-3.74,1.15-9.69,1.15-14-3.17-29.33-3.17-29.33l-6.36-57.25Z"/>
      <path class="cls-1" d="M424.14,322.67s1.48,7.39.26,11.42a68.41,68.41,0,0,1-3,8.79"/>
    </g>
    <g>
      <path class="cls-1" d="M295.5,318.07s-2.17,9.87-2,13.83,3.14,4.79,3.14,4.79Z"/>
      <path class="cls-1" d="M323.62,236.66l-5.22,26.85s-.5,11.43-2.49,19.88-7.21,30.26-7.21,30.26,2.27,1.87,2.73,11c.14,2.93,1,8.1-1.73,8.24s-1.74-7.36-3-9c-.54-.66-3.13-3.67-3.25-3l-1.51,11.41a54.36,54.36,0,0,1,2,7.65c.14,2,.58,4.77-2,2.89,0,0-1,.43-2.75-1.88s-2.74-3.74-2.74-3.74-1.16-9.69-1.16-14,3.18-29.33,3.18-29.33l6.35-57.25Z"/>
      <path class="cls-1" d="M299.14,322.67s-1.49,7.39-.26,11.42a68.41,68.41,0,0,0,3,8.79"/>
    </g>
    <path class="cls-2" d="M348.68,173.43l.2-3.07s4.43-2.47,13.85-2.57,12.15,2.57,12.15,2.57l-5.44,4.5Z"/>
    <polygon class="cls-1" points="355.9 162.29 353.37 175.13 372.65 175.13 368.64 162.91 355.9 162.29"/>
    <path class="cls-2" d="M384.27,123.57s18.24-2.64,18.45,15.4c0,9.81-11.07,13.6-11.07,13.6l.32,3.8s15.08-4.22,15.08-18.56c0-15.51-14.56-19.41-22.78-18.56C377.54,119.94,384.27,123.57,384.27,123.57Z"/>
    <path class="cls-2" d="M334.53,80.48s-11-.47-11,3.09,5.94,9.6,18.15,11.62,10.32,8.66,3.21,7.12S319.22,93.88,318,84.16s18.38-7.24,18.38-7.24Z"/>
    <path class="cls-2" d="M359.21,66.06s3.11-6.57,18-7c13.59-.35,16.89,3.78,16.89,3.78l-14,10.51Z"/>
    <path class="cls-2" d="M337.14,75.74l-7.45-13.58s12.56-5.41,23.79-1.84,17.55,5.31,27.45,5.52,13.17-3,13.17-3l-6.74,11.63Z"/>
    <path class="cls-1" d="M379.29,288.47s1.25,13.47,19.26,17.38v3.92s-18.16-1.88-21.92-21.3Z"/>
    <path class="cls-1" d="M342.63,288.47s-1.25,13.47-19.26,17.38v3.92s18.17-1.88,21.93-21.3Z"/>
    <path class="cls-2" d="M334,71.55h54.72s2.57-.54,2.65.94S390.78,83,382.52,90.8A16.17,16.17,0,0,1,378,100s-1.87,4.91-5,6.86l-.16,4.21H349.24v-4a8.67,8.67,0,0,1-4.05-7.79s-4.13-2-5-8.42c0,0-7.4-4.6-8.26-15.58C331.55,71.45,334,71.55,334,71.55Z"/>
    <line class="cls-3" x1="388.14" y1="83.57" x2="352.67" y2="83.57"/>
    <line class="cls-3" x1="382.57" y1="91.16" x2="358.72" y2="91.16"/>
    <line class="cls-3" x1="378.3" y1="99.7" x2="362.76" y2="99.7"/>
    <line class="cls-3" x1="372.48" y1="107.05" x2="367.03" y2="107.05"/>
    <rect class="cls-2" x="330.62" y="111.07" width="60.78" height="3.37" rx="1.68"/>
    <path class="cls-2" d="M389.52,150.7c2.19-8.15-2.29-9.15-2.29-9.15,1.79-6.66-1.88-9-1.88-9,1.49-5.76-1.7-6.46-1.7-6.46,1.4-9.25-1.79-11.71-1.79-11.71h-42l-5,5.15,3.08.49a9.54,9.54,0,0,0-.1,5s-3.11,1.21-1.15,7.31c0,0-3.23,2.39-1.83,8.48,0,0-3.76,1.56-2.36,9,0,0-5,2.82-2.19,10.19a8.53,8.53,0,0,0,7.1,5.3l24.89.54h22.58a8.81,8.81,0,0,0,7.85-6.76C394.49,152.59,389.52,150.7,389.52,150.7Z"/>
    <path class="cls-4" d="M370.29,150.4c0-4.66,8.9-8,8.9-16.92,0-4.55-2.28-7.15-6.67-7.15a8.73,8.73,0,0,0-1.49.12c-.83-2.71-2.94-4.21-6.27-4.21-4.38,0-6.66,2.6-6.66,7.14v2.76h4.22v-3c0-2,.9-2.8,2.32-2.8s2.32.69,2.32,3.25c0,8.2-8.86,9.58-8.86,17.94V151h7.78c0,.2,0,.4,0,.6v3.49h12.91V151h-8.45a3.08,3.08,0,0,1,0-.61m-7.72-3.48a3.08,3.08,0,0,1,0-.61c0-4.45,8.1-7.69,8.84-15.74a2.8,2.8,0,0,1,1-.18,2.2,2.2,0,0,1,1.47.44c.86.6,1.57,2,.51,5.42-1.21,4.51-5.4,6.72-7.42,10.67Z"/>
    <path class="cls-1" d="M422.22,236.94s-2-20.54-10.05-36.84-17.4-16.93-25.95-20.25-11.32-9.49-11.34-9.49a56.43,56.43,0,0,1-13,1.68,59.29,59.29,0,0,1-13-1.68s-2.77,6.16-11.31,9.49-17.88,4-25.95,20.25-10.05,36.84-10.05,36.84,11.66,9.72,26.14,4.29c0,0-1.58,34.28-2.26,43.3,0,0,21.83,6.93,35.33,6.93a2.44,2.44,0,0,0,1.12-.3,2.37,2.37,0,0,0,1.11.3c13.5,0,34.33-6.93,34.33-6.93-.67-9-2.26-43.3-2.26-43.3C409.56,246.66,422.22,236.94,422.22,236.94Z"/>
    <g>
      <path class="cls-5" d="M331.57,209.41s-3.16,24.33-3.89,36.24"/>
      <line class="cls-6" x1="330.77" y1="215.73" x2="328.42" y2="210.64"/>
    </g>
    <g>
      <path class="cls-5" d="M391.45,209.41s3.16,24.33,3.89,36.24"/>
      <line class="cls-6" x1="392.24" y1="215.73" x2="394.6" y2="210.64"/>
    </g>
    <line class="cls-7" x1="338.29" y1="124.73" x2="347.36" y2="124.73"/>
    <line class="cls-7" x1="336.39" y1="132.22" x2="350.52" y2="132.22"/>
    <line class="cls-7" x1="335.02" y1="140.66" x2="350.52" y2="140.66"/>
    <line class="cls-7" x1="332.8" y1="149.62" x2="353.37" y2="149.62"/>
  </g>
</svg>
