<?xml version="1.0" encoding="UTF-8" standalone="no"?>
<!-- Created with Inkscape (http://www.inkscape.org/) -->

<svg
   width="210mm"
   height="297mm"
   viewBox="0 0 210 297"
   version="1.1"
   id="svg1"
   inkscape:version="1.4 (86a8ad7, 2024-10-11)"
   sodipodi:docname="character.svg"
   xmlns:inkscape="http://www.inkscape.org/namespaces/inkscape"
   xmlns:sodipodi="http://sodipodi.sourceforge.net/DTD/sodipodi-0.dtd"
   xmlns="http://www.w3.org/2000/svg"
   xmlns:svg="http://www.w3.org/2000/svg">
  <sodipodi:namedview
     id="namedview1"
     pagecolor="#ffffff"
     bordercolor="#000000"
     borderopacity="0.25"
     inkscape:showpageshadow="2"
     inkscape:pageopacity="0.0"
     inkscape:pagecheckerboard="0"
     inkscape:deskcolor="#d1d1d1"
     inkscape:document-units="mm"
     inkscape:zoom="0.71891835"
     inkscape:cx="397.12437"
     inkscape:cy="449.98156"
     inkscape:window-width="1920"
     inkscape:window-height="1009"
     inkscape:window-x="1912"
     inkscape:window-y="-8"
     inkscape:window-maximized="1"
     inkscape:current-layer="layer1" />
  <defs
     id="defs1">
    <clipPath
       clipPathUnits="userSpaceOnUse"
       id="clipPath6">
      <path
         d="M 0,569.197 H 759.3 V 0 H 0 Z"
         transform="translate(-689.44901,-100.50751)"
         id="path6" />
    </clipPath>
    <clipPath
       clipPathUnits="userSpaceOnUse"
       id="clipPath8">
      <path
         d="M 0,569.197 H 759.3 V 0 H 0 Z"
         transform="translate(-735.10922,-67.440102)"
         id="path8" />
    </clipPath>
    <clipPath
       clipPathUnits="userSpaceOnUse"
       id="clipPath10">
      <path
         d="M 0,569.197 H 759.3 V 0 H 0 Z"
         transform="translate(-661.83182,-67.690099)"
         id="path10" />
    </clipPath>
    <clipPath
       clipPathUnits="userSpaceOnUse"
       id="clipPath12">
      <path
         d="M 0,569.197 H 759.3 V 0 H 0 Z"
         transform="translate(-689.20001,-89.8493)"
         id="path12" />
    </clipPath>
    <clipPath
       clipPathUnits="userSpaceOnUse"
       id="clipPath14">
      <path
         d="M 0,569.197 H 759.3 V 0 H 0 Z"
         transform="translate(-691.96952,-82.9235)"
         id="path14" />
    </clipPath>
    <clipPath
       clipPathUnits="userSpaceOnUse"
       id="clipPath16">
      <path
         d="M 0,569.197 H 759.3 V 0 H 0 Z"
         transform="translate(-697.23322,-77.939104)"
         id="path16" />
    </clipPath>
    <clipPath
       clipPathUnits="userSpaceOnUse"
       id="clipPath18">
      <path
         d="M 0,569.197 H 759.3 V 0 H 0 Z"
         transform="translate(-701.94322,-74.889304)"
         id="path18" />
    </clipPath>
    <clipPath
       clipPathUnits="userSpaceOnUse"
       id="clipPath20">
      <path
         d="M 0,569.197 H 759.3 V 0 H 0 Z"
         transform="translate(-708.59162,-72.949902)"
         id="path20" />
    </clipPath>
    <clipPath
       clipPathUnits="userSpaceOnUse"
       id="clipPath22">
      <path
         d="M 0,569.197 H 759.3 V 0 H 0 Z"
         id="path22" />
    </clipPath>
    <clipPath
       clipPathUnits="userSpaceOnUse"
       id="clipPath24">
      <path
         d="M 0,569.197 H 759.3 V 0 H 0 Z"
         transform="translate(-609.28792,-100.50751)"
         id="path24" />
    </clipPath>
    <clipPath
       clipPathUnits="userSpaceOnUse"
       id="clipPath26">
      <path
         d="M 0,569.197 H 759.3 V 0 H 0 Z"
         transform="translate(-563.62771,-67.440102)"
         id="path26" />
    </clipPath>
    <clipPath
       clipPathUnits="userSpaceOnUse"
       id="clipPath28">
      <path
         d="M 0,569.197 H 759.3 V 0 H 0 Z"
         transform="translate(-636.90512,-67.690099)"
         id="path28" />
    </clipPath>
    <clipPath
       clipPathUnits="userSpaceOnUse"
       id="clipPath30">
      <path
         d="M 0,569.197 H 759.3 V 0 H 0 Z"
         transform="translate(-609.53692,-89.8493)"
         id="path30" />
    </clipPath>
    <clipPath
       clipPathUnits="userSpaceOnUse"
       id="clipPath32">
      <path
         d="M 0,569.197 H 759.3 V 0 H 0 Z"
         transform="translate(-606.76742,-82.9235)"
         id="path32" />
    </clipPath>
    <clipPath
       clipPathUnits="userSpaceOnUse"
       id="clipPath34">
      <path
         d="M 0,569.197 H 759.3 V 0 H 0 Z"
         transform="translate(-601.50371,-77.939104)"
         id="path34" />
    </clipPath>
    <clipPath
       clipPathUnits="userSpaceOnUse"
       id="clipPath36">
      <path
         d="M 0,569.197 H 759.3 V 0 H 0 Z"
         transform="translate(-596.79382,-74.889304)"
         id="path36" />
    </clipPath>
    <clipPath
       clipPathUnits="userSpaceOnUse"
       id="clipPath38">
      <path
         d="M 0,569.197 H 759.3 V 0 H 0 Z"
         transform="translate(-590.14531,-72.949902)"
         id="path38" />
    </clipPath>
    <clipPath
       clipPathUnits="userSpaceOnUse"
       id="clipPath196">
      <path
         d="M 0,569.197 H 759.3 V 0 H 0 Z"
         transform="translate(-642.42952,-192.9977)"
         id="path196" />
    </clipPath>
    <clipPath
       clipPathUnits="userSpaceOnUse"
       id="clipPath200">
      <path
         d="M 0,569.197 H 759.3 V 0 H 0 Z"
         transform="translate(-643.88651,-421.83861)"
         id="path200" />
    </clipPath>
    <clipPath
       clipPathUnits="userSpaceOnUse"
       id="clipPath202">
      <path
         d="M 0,569.197 H 759.3 V 0 H 0 Z"
         transform="translate(-606.93932,-325.92061)"
         id="path202" />
    </clipPath>
    <clipPath
       clipPathUnits="userSpaceOnUse"
       id="clipPath204">
      <path
         d="M 0,569.197 H 759.3 V 0 H 0 Z"
         transform="translate(-597.83182,-244.45771)"
         id="path204" />
    </clipPath>
    <clipPath
       clipPathUnits="userSpaceOnUse"
       id="clipPath208">
      <path
         d="M 0,569.197 H 759.3 V 0 H 0 Z"
         transform="translate(-591.19711,-233.85811)"
         id="path208" />
    </clipPath>
    <clipPath
       clipPathUnits="userSpaceOnUse"
       id="clipPath212">
      <path
         d="M 0,569.197 H 759.3 V 0 H 0 Z"
         transform="translate(-709.62482,-233.85811)"
         id="path212" />
    </clipPath>
    <clipPath
       clipPathUnits="userSpaceOnUse"
       id="clipPath220">
      <path
         d="M 0,569.197 H 759.3 V 0 H 0 Z"
         transform="translate(-615.34361,-428.12321)"
         id="path220" />
    </clipPath>
    <clipPath
       clipPathUnits="userSpaceOnUse"
       id="clipPath222">
      <path
         d="M 0,569.197 H 759.3 V 0 H 0 Z"
         transform="translate(-646.24102,-452.17691)"
         id="path222" />
    </clipPath>
    <clipPath
       clipPathUnits="userSpaceOnUse"
       id="clipPath350">
      <path
         d="M 0,569.197 H 759.3 V 0 H 0 Z"
         transform="translate(-677.55842,-378.03681)"
         id="path350" />
    </clipPath>
    <clipPath
       clipPathUnits="userSpaceOnUse"
       id="clipPath352">
      <path
         d="M 0,569.197 H 759.3 V 0 H 0 Z"
         transform="translate(-677.71271,-370.88841)"
         id="path352" />
    </clipPath>
    <clipPath
       clipPathUnits="userSpaceOnUse"
       id="clipPath354">
      <path
         d="M 0,569.197 H 759.3 V 0 H 0 Z"
         transform="translate(-674.18441,-385.92601)"
         id="path354" />
    </clipPath>
    <clipPath
       clipPathUnits="userSpaceOnUse"
       id="clipPath356">
      <path
         d="M 0,569.197 H 759.3 V 0 H 0 Z"
         transform="translate(-674.16002,-374.43521)"
         id="path356" />
    </clipPath>
    <clipPath
       clipPathUnits="userSpaceOnUse"
       id="clipPath358">
      <path
         d="M 0,569.197 H 759.3 V 0 H 0 Z"
         transform="translate(-677.61701,-381.46361)"
         id="path358" />
    </clipPath>
  </defs>
  <g
     inkscape:label="Layer 1"
     inkscape:groupmode="layer"
     id="layer1">
    <g
       id="g429"
       transform="matrix(0.26458333,0,0,0.26458333,-223.85827,7.7537263)">
      <path
         id="path399"
         d="m 1298.3196,655.18202 h -29.296 v 20.44533 h 29.296 z"
         style="fill:#000000;fill-opacity:1;fill-rule:nonzero;stroke:#ffffff;stroke-width:1.33333;stroke-linecap:butt;stroke-linejoin:miter;stroke-miterlimit:10;stroke-dasharray:none;stroke-opacity:1" />
      <path
         id="path400"
         d="m 0,0 c 0,0 4.803,-10.505 5.703,-14.706 0.901,-4.202 8.403,-8.254 17.408,-10.356 9.004,-2.1 20.56,-3.451 22.66,-7.353 2.101,-3.901 -0.45,-7.203 -1.951,-8.254 -1.5,-1.05 -68.28,-1.237 -69.161,-1.091 -0.882,0.148 -4.185,2.644 -4.185,3.232 0,0.588 1.909,4.902 1.909,5.711 0,0.807 1.101,9.116 1.909,10.249 0.808,1.132 3.378,6.714 3.745,8.476 C -20.201,-13.505 -4.84,-5.954 0,0"
         style="fill:#000000;fill-opacity:1;fill-rule:nonzero;stroke:#ffffff;stroke-width:1;stroke-linecap:butt;stroke-linejoin:miter;stroke-miterlimit:10;stroke-dasharray:none;stroke-opacity:1"
         transform="matrix(1.3333333,0,0,-1.3333333,1298.3076,656.83868)"
         clip-path="url(#clipPath6)" />
      <path
         id="path401"
         d="m 0,0 c 0,0 -10.588,-4.402 -17.514,-3.433 -6.925,0.97 -54.437,10.882 -54.437,10.882"
         style="fill:#000000;fill-opacity:1;fill-rule:nonzero;stroke:#ffffff;stroke-width:1;stroke-linecap:butt;stroke-linejoin:miter;stroke-miterlimit:10;stroke-dasharray:none;stroke-opacity:1"
         transform="matrix(1.3333333,0,0,-1.3333333,1359.1879,700.92855)"
         clip-path="url(#clipPath8)" />
      <path
         id="path402"
         d="m 0,0 c 0,0 6.452,-2.497 10.191,-2.22 3.741,0.277 16.653,4.324 16.653,4.324"
         style="fill:#000000;fill-opacity:1;fill-rule:nonzero;stroke:#ffffff;stroke-width:1;stroke-linecap:butt;stroke-linejoin:miter;stroke-miterlimit:10;stroke-dasharray:none;stroke-opacity:1"
         transform="matrix(1.3333333,0,0,-1.3333333,1261.4847,700.59522)"
         clip-path="url(#clipPath10)" />
      <path
         id="path403"
         d="M 0,0 5.54,2.771"
         style="fill:none;stroke:#ffffff;stroke-width:1;stroke-linecap:butt;stroke-linejoin:miter;stroke-miterlimit:10;stroke-dasharray:none;stroke-opacity:1"
         transform="matrix(1.3333333,0,0,-1.3333333,1297.9756,671.04962)"
         clip-path="url(#clipPath12)" />
      <path
         id="path404"
         d="M 0,0 5.126,2.771"
         style="fill:none;stroke:#ffffff;stroke-width:1;stroke-linecap:butt;stroke-linejoin:miter;stroke-miterlimit:10;stroke-dasharray:none;stroke-opacity:1"
         transform="matrix(1.3333333,0,0,-1.3333333,1301.6683,680.28402)"
         clip-path="url(#clipPath14)" />
      <path
         id="path405"
         d="M 0,0 3.048,4.568"
         style="fill:none;stroke:#ffffff;stroke-width:1;stroke-linecap:butt;stroke-linejoin:miter;stroke-miterlimit:10;stroke-dasharray:none;stroke-opacity:1"
         transform="matrix(1.3333333,0,0,-1.3333333,1308.6866,686.92988)"
         clip-path="url(#clipPath16)" />
      <path
         id="path406"
         d="M 0,0 3.324,5.334"
         style="fill:none;stroke:#ffffff;stroke-width:1;stroke-linecap:butt;stroke-linejoin:miter;stroke-miterlimit:10;stroke-dasharray:none;stroke-opacity:1"
         transform="matrix(1.3333333,0,0,-1.3333333,1314.9666,690.99628)"
         clip-path="url(#clipPath18)" />
      <path
         id="path407"
         d="M 0,0 2.494,5.68"
         style="fill:none;stroke:#ffffff;stroke-width:1;stroke-linecap:butt;stroke-linejoin:miter;stroke-miterlimit:10;stroke-dasharray:none;stroke-opacity:1"
         transform="matrix(1.3333333,0,0,-1.3333333,1323.8311,693.58215)"
         clip-path="url(#clipPath20)" />
      <path
         id="path408"
         d="m 609.279,101.75 h 21.972 V 86.416 h -21.972 z"
         style="fill:#000000;fill-opacity:1;fill-rule:nonzero;stroke:#ffffff;stroke-width:1;stroke-linecap:butt;stroke-linejoin:miter;stroke-miterlimit:10;stroke-dasharray:none;stroke-opacity:1"
         transform="matrix(1.3333333,0,0,-1.3333333,379.04228,790.84868)"
         clip-path="url(#clipPath22)" />
      <path
         id="path409"
         d="m 0,0 c 0,0 -4.803,-10.505 -5.703,-14.706 -0.901,-4.202 -8.403,-8.254 -17.407,-10.356 -9.005,-2.1 -20.56,-3.451 -22.661,-7.353 -2.101,-3.901 0.898,-6.755 1.951,-8.254 3.617,-5.149 68.28,-0.237 69.161,-0.091 0.882,0.148 4.186,2.644 4.186,3.232 0,0.588 -1.91,3.902 -1.91,4.711 0,0.807 -1.1,9.116 -1.909,10.249 -0.808,1.132 -3.378,6.714 -3.745,8.476 C 20.201,-13.505 4.84,-5.954 0,0"
         style="fill:#000000;fill-opacity:1;fill-rule:nonzero;stroke:#ffffff;stroke-width:1;stroke-linecap:butt;stroke-linejoin:miter;stroke-miterlimit:10;stroke-dasharray:none;stroke-opacity:1"
         transform="matrix(1.3333333,0,0,-1.3333333,1191.4262,656.83868)"
         clip-path="url(#clipPath24)" />
      <path
         id="path410"
         d="m 0,0 c 0,0 10.588,-4.402 17.514,-3.433 6.925,0.97 54.437,10.882 54.437,10.882"
         style="fill:#000000;fill-opacity:1;fill-rule:nonzero;stroke:#ffffff;stroke-width:1;stroke-linecap:butt;stroke-linejoin:miter;stroke-miterlimit:10;stroke-dasharray:none;stroke-opacity:1"
         transform="matrix(1.3333333,0,0,-1.3333333,1130.5459,700.92855)"
         clip-path="url(#clipPath26)" />
      <path
         id="path411"
         d="m 0,0 c 0,0 -6.451,-2.497 -10.191,-2.22 -3.741,0.277 -16.653,4.324 -16.653,4.324"
         style="fill:#000000;fill-opacity:1;fill-rule:nonzero;stroke:#ffffff;stroke-width:1;stroke-linecap:butt;stroke-linejoin:miter;stroke-miterlimit:10;stroke-dasharray:none;stroke-opacity:1"
         transform="matrix(1.3333333,0,0,-1.3333333,1228.2491,700.59522)"
         clip-path="url(#clipPath28)" />
      <path
         id="path412"
         d="M 0,0 -5.54,2.771"
         style="fill:none;stroke:#ffffff;stroke-width:1;stroke-linecap:butt;stroke-linejoin:miter;stroke-miterlimit:10;stroke-dasharray:none;stroke-opacity:1"
         transform="matrix(1.3333333,0,0,-1.3333333,1191.7582,671.04962)"
         clip-path="url(#clipPath30)" />
      <path
         id="path413"
         d="M 0,0 -5.125,2.771"
         style="fill:none;stroke:#ffffff;stroke-width:1;stroke-linecap:butt;stroke-linejoin:miter;stroke-miterlimit:10;stroke-dasharray:none;stroke-opacity:1"
         transform="matrix(1.3333333,0,0,-1.3333333,1188.0655,680.28402)"
         clip-path="url(#clipPath32)" />
      <path
         id="path414"
         d="M 0,0 -3.048,4.568"
         style="fill:none;stroke:#ffffff;stroke-width:1;stroke-linecap:butt;stroke-linejoin:miter;stroke-miterlimit:10;stroke-dasharray:none;stroke-opacity:1"
         transform="matrix(1.3333333,0,0,-1.3333333,1181.0472,686.92988)"
         clip-path="url(#clipPath34)" />
      <path
         id="path415"
         d="M 0,0 -3.324,5.334"
         style="fill:none;stroke:#ffffff;stroke-width:1;stroke-linecap:butt;stroke-linejoin:miter;stroke-miterlimit:10;stroke-dasharray:none;stroke-opacity:1"
         transform="matrix(1.3333333,0,0,-1.3333333,1174.7674,690.99628)"
         clip-path="url(#clipPath36)" />
      <path
         id="path416"
         d="M 0,0 -2.493,5.68"
         style="fill:none;stroke:#ffffff;stroke-width:1;stroke-linecap:butt;stroke-linejoin:miter;stroke-miterlimit:10;stroke-dasharray:none;stroke-opacity:1"
         transform="matrix(1.3333333,0,0,-1.3333333,1165.9027,693.58215)"
         clip-path="url(#clipPath38)" />
      <path
         id="path417"
         d="m 0,0 c -5.795,-6.762 -8.049,-96.273 -8.049,-96.273 -17.388,-0.645 -29.301,2.897 -29.301,2.897 -5.473,36.385 -8.36,142.806 -8.36,142.806 0,0 61.412,35.688 104.361,-9.603 0,0 -4.762,-94.691 -10.236,-131.075 0,0 -11.626,-6.428 -29.013,-5.784 0,0 -0.103,90.27 -5.899,97.032"
         style="fill:#000000;fill-opacity:1;fill-rule:nonzero;stroke:#ffffff;stroke-width:1;stroke-linecap:butt;stroke-linejoin:miter;stroke-miterlimit:10;stroke-dasharray:none;stroke-opacity:1"
         transform="matrix(1.3333333,0,0,-1.3333333,1235.615,533.51842)"
         clip-path="url(#clipPath196)" />
      <path
         id="path418"
         d="M 0,0 -3.142,-18.553 H 20.05 l -0.898,17.356 z"
         style="fill:#000000;fill-opacity:1;fill-rule:nonzero;stroke:#ffffff;stroke-width:1;stroke-linecap:butt;stroke-linejoin:miter;stroke-miterlimit:10;stroke-dasharray:none;stroke-opacity:1"
         transform="matrix(1.3333333,0,0,-1.3333333,1237.5576,228.39722)"
         clip-path="url(#clipPath200)" />
      <path
         id="path419"
         d="m 0,0 c 0,0 -6.935,-8.289 -9.284,-86.994 27.561,-10.744 44.222,-10.97 51.245,-10.982 18.216,-0.032 37.138,1.61 53.488,13.288 0,0 -4.864,62.868 -9.068,84.688 17.822,2.271 28.656,12.231 28.656,12.231 0,0 -5.242,29.181 -14.153,42.111 -8.911,12.93 -29.53,19.919 -35.646,23.023 -6.115,3.103 -6.01,7.152 -6.01,7.152 l -31.857,0.927 c 0,0 1.095,-4.976 -5.02,-8.079 -6.116,-3.104 -26.734,-10.093 -35.646,-23.023 -8.911,-12.93 -14.153,-42.111 -14.153,-42.111 0,0 10.834,-9.96 28.656,-12.231 z"
         style="fill:#000000;fill-opacity:1;fill-rule:nonzero;stroke:#ffffff;stroke-width:1;stroke-linecap:butt;stroke-linejoin:miter;stroke-miterlimit:10;stroke-dasharray:none;stroke-opacity:1"
         transform="matrix(1.3333333,0,0,-1.3333333,1188.2947,356.28788)"
         clip-path="url(#clipPath202)" />
      <path
         id="path420"
         d="M 0,0 C 0,0 26.752,-10.397 55.405,-10.053 84.06,-9.707 104.249,2.605 104.249,2.605"
         style="fill:#000000;fill-opacity:1;fill-rule:nonzero;stroke:#ffffff;stroke-width:1;stroke-linecap:butt;stroke-linejoin:miter;stroke-miterlimit:10;stroke-dasharray:none;stroke-opacity:1"
         transform="matrix(1.3333333,0,0,-1.3333333,1176.1514,464.90508)"
         clip-path="url(#clipPath204)" />
      <path
         id="path421"
         d="m 0,0 c 0,0 0.397,-6.948 3.028,-12.563 1.243,-2.656 6.047,-13.771 0.802,-9.736 -3.81,2.931 -5.112,9.235 -6.351,13.528 -1.238,4.293 -3.405,22.636 -3.405,22.636 -5.78,50.454 -2.065,66.86 -2.065,66.86 0.101,6.191 0,20.734 0,20.734 0,0 11.279,-8.108 23.733,-9.396 l -1.4,-11.324 c 0,0 -2.645,-22.02 -4.389,-49.232 -2.048,-15.174 0.004,-20.293 0.004,-20.293 0,0 3.699,-4.199 4.699,-8.8 1,-4.6 0.501,-11.571 -2.349,-11.185 C 9.456,-8.386 10.26,5.522 6.458,5.068 2.656,4.614 9.256,-14.386 11.856,-17.985 c 2.6,-3.6 3.2,-7.6 0.201,-6.6 -3,1 -10.643,8.284 -12.182,25.81"
         style="fill:#000000;fill-opacity:1;fill-rule:nonzero;stroke:#ffffff;stroke-width:1;stroke-linecap:butt;stroke-linejoin:miter;stroke-miterlimit:10;stroke-dasharray:none;stroke-opacity:1"
         transform="matrix(1.3333333,0,0,-1.3333333,1167.3051,479.03788)"
         clip-path="url(#clipPath208)" />
      <path
         id="path422"
         d="m 0,0 c 0,0 -0.396,-6.948 -3.027,-12.563 -1.244,-2.656 -6.047,-13.771 -0.802,-9.736 3.81,2.931 5.112,9.235 6.35,13.528 1.239,4.293 3.406,22.636 3.406,22.636 5.779,50.454 2.064,66.86 2.064,66.86 -0.101,6.191 0,20.734 0,20.734 0,0 -11.278,-8.108 -23.732,-9.396 l 1.4,-11.324 c 0,0 3.028,-23.262 4.774,-50.474 2.047,-15.175 -0.389,-19.051 -0.389,-19.051 0,0 -3.699,-4.199 -4.699,-8.8 -1,-4.6 -0.501,-11.571 2.349,-11.185 2.851,0.385 2.047,14.293 5.849,13.839 3.802,-0.454 -2.799,-19.454 -5.398,-23.053 -2.6,-3.6 -3.201,-7.6 -0.201,-6.6 3,1 10.643,8.284 12.182,25.81"
         style="fill:#000000;fill-opacity:1;fill-rule:nonzero;stroke:#ffffff;stroke-width:1;stroke-linecap:butt;stroke-linejoin:miter;stroke-miterlimit:10;stroke-dasharray:none;stroke-opacity:1"
         transform="matrix(1.3333333,0,0,-1.3333333,1325.2087,479.03788)"
         clip-path="url(#clipPath212)" />
      <path
         id="path423"
         d="m 0,0 19.288,69.843 c 0,0 1.4,7.155 7.622,7.155 6.223,0 31.267,-0.467 44.333,-9.178 3.734,-3.422 2.8,-8.399 2.8,-8.399 l -7.312,-71.71 c 0,0 3.112,-1.089 2.645,-3.889 -0.467,-2.8 -2.645,-2.8 -4.666,-2.644 C 62.688,-18.667 0,-6.689 0,-6.689 c 0,0 -4.355,1.4 -3.578,4.356 C -2.8,0.622 0,0 0,0"
         style="fill:#000000;fill-opacity:1;fill-rule:nonzero;stroke:#ffffff;stroke-width:1;stroke-linecap:butt;stroke-linejoin:miter;stroke-miterlimit:10;stroke-dasharray:none;stroke-opacity:1"
         transform="matrix(1.3333333,0,0,-1.3333333,1199.5004,220.01775)"
         clip-path="url(#clipPath220)" />
      <path
         id="path424"
         d="m 0,0 c -0.012,0.284 0.029,0.558 0.071,0.833 0.911,6.023 12.525,8.744 15.171,19.476 0.435,0.106 0.918,0.114 1.445,0.034 0.796,-0.12 1.447,-0.385 1.898,-0.901 1.042,-0.977 1.72,-3.049 -0.422,-7.427 C 15.606,6.168 9.485,4.026 5.949,-0.9 Z m 9.734,-6.287 c 0.954,6.31 13.661,8.995 15.488,21.071 0.93,6.147 -1.614,10.126 -7.545,11.024 -0.718,0.108 -1.402,0.157 -2.051,0.151 -0.562,3.833 -3.109,6.29 -7.611,6.971 -5.927,0.897 -9.535,-2.153 -10.464,-8.301 l -0.566,-3.732 5.708,-0.863 0.623,4.115 c 0.415,2.745 1.785,3.606 3.707,3.315 1.917,-0.29 2.989,-1.407 2.465,-4.865 C 7.81,11.51 -4.443,11.454 -6.154,0.146 L -6.868,-4.575 3.653,-6.167 C 3.601,-6.43 3.55,-6.7 3.508,-6.976 l -0.714,-4.719 17.459,-2.642 0.83,5.489 -11.42,1.728 c -0.013,0.284 0.029,0.558 0.071,0.833"
         style="fill:#ffffff;fill-opacity:1;fill-rule:nonzero;stroke:none"
         transform="matrix(1.3333333,0,0,-1.3333333,1240.697,187.94615)"
         clip-path="url(#clipPath222)" />
      <path
         id="path425"
         d="m 0,0 v -0.527 l -1.836,0.253 z m -3.398,-0.702 4.939,-0.749 v 0.713 l -0.909,0.125 v 0.71 L 1.541,0.232 V 0.94 L -3.398,0.123 Z"
         style="fill:#ffffff;fill-opacity:1;fill-rule:nonzero;stroke:none"
         transform="matrix(1.3333333,0,0,-1.3333333,1282.4535,286.79962)"
         clip-path="url(#clipPath350)" />
      <path
         id="path426"
         d="m 0,0 c -0.269,0 -0.464,0.011 -0.581,0.033 -0.11,0.022 -0.184,0.055 -0.219,0.1 -0.035,0.046 -0.053,0.128 -0.053,0.243 V 0.703 H 0.828 V 0.423 C 0.828,0.312 0.812,0.227 0.783,0.17 0.724,0.057 0.518,0 0.17,0 Z M -1.424,0.656 C -1.389,0.61 -1.371,0.528 -1.371,0.413 V 0.086 h -1.681 v 0.281 c 0,0.111 0.016,0.196 0.046,0.253 0.059,0.112 0.265,0.17 0.612,0.17 h 0.17 c 0.269,0 0.465,-0.012 0.581,-0.034 0.111,-0.021 0.185,-0.055 0.219,-0.1 m -0.077,0.747 c -0.186,0.06 -0.444,0.091 -0.766,0.091 H -2.385 C -2.834,1.49 -3.159,1.411 -3.352,1.259 -3.547,1.105 -3.646,0.814 -3.646,0.395 v -1.02 h 2.597 v 0.217 c 0.083,-0.093 0.193,-0.162 0.326,-0.205 0.187,-0.061 0.445,-0.092 0.766,-0.092 h 0.118 c 0.45,0.004 0.776,0.083 0.968,0.235 0.194,0.154 0.293,0.445 0.293,0.865 v 1.02 H -1.175 V 1.197 C -1.258,1.29 -1.367,1.359 -1.501,1.403"
         style="fill:#ffffff;fill-opacity:1;fill-rule:nonzero;stroke:none"
         transform="matrix(1.3333333,0,0,-1.3333333,1282.6592,296.33082)"
         clip-path="url(#clipPath352)" />
      <path
         id="path427"
         d="M 0,0 V -0.792 L 2.215,-1.837 H 0 v -0.736 h 4.95 v 0.736 H 3.472 l -0.748,0.4 2.226,0.854 v 0.747 l -2.918,-1.15 z"
         style="fill:#ffffff;fill-opacity:1;fill-rule:nonzero;stroke:none"
         transform="matrix(1.3333333,0,0,-1.3333333,1277.9548,276.28068)"
         clip-path="url(#clipPath354)" />
      <path
         id="path428"
         d="M 0,0 V -0.737 H 4.939 V 0.879 H 4.3 V 0 Z"
         style="fill:#ffffff;fill-opacity:1;fill-rule:nonzero;stroke:none"
         transform="matrix(1.3333333,0,0,-1.3333333,1277.9223,291.60175)"
         clip-path="url(#clipPath356)" />
      <path
         id="path429"
         d="m 0,0 c 0.35,0 0.595,-0.023 0.729,-0.069 0.109,-0.037 0.158,-0.103 0.158,-0.212 0,-0.11 -0.049,-0.176 -0.158,-0.215 C 0.597,-0.543 0.352,-0.567 0.003,-0.567 H -2.06 c -0.292,0 -0.505,0.026 -0.636,0.078 -0.109,0.044 -0.158,0.114 -0.158,0.228 0,0.053 0.012,0.094 0.036,0.126 0.013,0.018 0.052,0.053 0.17,0.089 C -2.581,-0.025 -2.424,0 -2.057,0 h 0.495 v 0.726 h -0.492 c -0.352,0 -0.64,-0.036 -0.856,-0.107 -0.399,-0.132 -0.603,-0.428 -0.605,-0.88 0.002,-0.319 0.101,-0.567 0.293,-0.737 0.089,-0.079 0.221,-0.148 0.403,-0.212 0.18,-0.063 0.45,-0.094 0.825,-0.094 h 1.983 c 0.503,0 0.888,0.076 1.143,0.229 0.27,0.16 0.407,0.43 0.407,0.801 0,0.371 -0.134,0.637 -0.397,0.789 C 0.891,0.661 0.516,0.731 -0.005,0.731 H -0.492 V 0 Z"
         style="fill:#ffffff;fill-opacity:1;fill-rule:nonzero;stroke:none"
         transform="matrix(1.3333333,0,0,-1.3333333,1282.5316,282.23055)"
         clip-path="url(#clipPath358)" />
    </g>
  </g>
</svg>
