<svg viewBox="35.32195928 141.5252688 355.45954639999997 142.01509919999998" xmlns="http://www.w3.org/2000/svg" data-name="Layer 1" id="Layer_1" style="max-height: 500px" width="355.45954639999997" height="142.01509919999998">
  <defs>
    <style>
      .cls-1 {
        fill: #fff;
      }
    </style>
  </defs>
  <g>
    <rect height="435.2" width="435.2" y="-5" x="-5"/>
    <g>
      <path data-index="0" d="M49.36,278.22a5.37,5.37,0,0,1-4.6,2,5.45,5.45,0,0,1-4.69-2.1,10,10,0,0,1-1.56-6V259.7q0-6.33,3.32-7.9a6.79,6.79,0,0,1,3-.58q6,0,6,7.53v3.9H46.59V259a9.31,9.31,0,0,0-.37-3.13,1.41,1.41,0,0,0-1.45-.94,1.49,1.49,0,0,0-1.49,1,8.32,8.32,0,0,0-.42,3.06v13.23a9.45,9.45,0,0,0,.4,3.27,1.58,1.58,0,0,0,2.93,0,9.57,9.57,0,0,0,.4-3.3v-4.06h4.24v4q0,4.11-1.47,6.08" class="cls-1"/>
      <path data-index="1" d="M66.61,278.15a5.47,5.47,0,0,1-4.74,2,5.54,5.54,0,0,1-4.78-2.05q-1.53-2.06-1.53-6.19V259q0-7.78,6.36-7.79,3.28,0,4.73,2A9.82,9.82,0,0,1,68.09,259v13c0,2.77-.5,4.83-1.48,6.2m-6.32-2.68a1.7,1.7,0,0,0,3.1,0,11.36,11.36,0,0,0,.37-3.45V258.8a8.42,8.42,0,0,0-.38-2.94,1.45,1.45,0,0,0-1.48-.93,1.58,1.58,0,0,0-1.55.93,7.27,7.27,0,0,0-.44,2.92V272a10.91,10.91,0,0,0,.38,3.47" class="cls-1"/>
      <polygon points="73.56 279.87 73.56 251.54 83.29 251.54 83.29 255.29 77.88 255.29 77.88 262.82 82.9 262.82 82.9 266.59 77.88 266.59 77.88 279.87 73.56 279.87" class="cls-1"/>
      <polygon points="87.96 279.87 87.96 251.54 97.68 251.54 97.68 255.29 92.28 255.29 92.28 262.82 97.3 262.82 97.3 266.59 92.28 266.59 92.28 279.87 87.96 279.87" class="cls-1"/>
      <polygon points="102.37 279.87 102.37 251.54 111.87 251.54 111.87 255.26 106.69 255.26 106.69 263.5 111.61 263.5 111.61 267.14 106.69 267.14 106.69 276.15 112.06 276.15 112.06 279.87 102.37 279.87" class="cls-1"/>
      <polygon points="117.09 279.87 117.09 251.54 126.59 251.54 126.59 255.26 121.4 255.26 121.4 263.5 126.33 263.5 126.33 267.14 121.4 267.14 121.4 276.15 126.78 276.15 126.78 279.87 117.09 279.87" class="cls-1"/>
      <path data-index="2" d="M151.42,258.81c0,3.05-.83,4.93-2.48,5.62q3,1,3,6.68v.73q0,4.26-1.49,6.15t-4.76,1.88h-6.26V251.54h6.13c2.12,0,3.61.49,4.49,1.47s1.33,2.63,1.34,4.94ZM143.77,263h1.6a1.45,1.45,0,0,0,1.45-.71,7.81,7.81,0,0,0,.35-2.91v-1.71a3.91,3.91,0,0,0-.45-2.2,1.8,1.8,0,0,0-1.5-.55h-1.45Zm0,13.52h1.53a1.9,1.9,0,0,0,1.8-.88,6.78,6.78,0,0,0,.52-3.18v-2.28a7.8,7.8,0,0,0-.42-3.05,1.59,1.59,0,0,0-1.61-.89h-1.82Z" class="cls-1"/>
      <path style="opacity: 1;" data-index="3" d="M155.62,279.87l4-28.33h5.7l4.3,28.33h-4l-.68-5.06h-4.57l-.61,5.06Zm8.89-8.52-1.9-14.23h-.06l-1.74,14.23Z" class="cls-1"/>
      <path data-index="4" d="M179.9,266.56l-1.38-.07v13.38h-4.31V251.54h7.13a5.19,5.19,0,0,1,3.31.89,4.27,4.27,0,0,1,1.44,2.5,20.42,20.42,0,0,1,.35,4.18,10.86,10.86,0,0,1-.55,3.94,3,3,0,0,1-2,1.82,2.63,2.63,0,0,1,2,2,28,28,0,0,1,.58,7.17,46.16,46.16,0,0,0,.16,5.85h-4.32c-.1-.22-.16-3.6-.16-10.16a4.68,4.68,0,0,0-.45-2.5,2.21,2.21,0,0,0-1.82-.65m-1.36-3.42h1.72a1.69,1.69,0,0,0,1.21-.37,2.15,2.15,0,0,0,.55-1.27,18.33,18.33,0,0,0,.15-2.75v-.18a7.66,7.66,0,0,0-.38-3c-.26-.47-.86-.71-1.79-.71h-1.46Z" class="cls-1"/>
      <path data-index="5" d="M198.25,279.87l4-28.33H208l4.3,28.33h-4l-.68-5.06H203l-.61,5.06Zm8.88-8.52-1.89-14.23h-.07l-1.74,14.23Z" class="cls-1"/>
      <polygon points="216.83 279.87 216.83 251.54 220.21 251.54 226.22 268.54 225.91 260.81 225.91 251.54 229.79 251.54 229.79 279.87 226.73 279.87 220.56 262.27 220.81 269.71 220.81 279.87 216.83 279.87" class="cls-1"/>
      <path style="opacity: 1;" data-index="6" d="M235.6,279.87V251.54H242a5.34,5.34,0,0,1,4.53,1.84,8.84,8.84,0,0,1,1.41,5.43l0,12.79c0,2.85-.48,4.94-1.42,6.27s-2.5,2-4.68,2Zm4.32-3.35h1.41a2,2,0,0,0,1.73-.77,5.28,5.28,0,0,0,.54-2.83v-14a6.66,6.66,0,0,0-.54-3.14,2,2,0,0,0-1.86-.94h-1.27Z" class="cls-1"/>
      <path style="opacity: 1;" data-index="7" d="M266.57,266.56l-1.39-.07v13.38h-4.31V251.54H268a5.22,5.22,0,0,1,3.32.89,4.27,4.27,0,0,1,1.44,2.5,20.52,20.52,0,0,1,.34,4.18,11.12,11.12,0,0,1-.54,3.94,3.09,3.09,0,0,1-2,1.82,2.62,2.62,0,0,1,2,2q.58,1.72.58,7.17a46.16,46.16,0,0,0,.16,5.85H269c-.11-.22-.16-3.6-.16-10.16a4.68,4.68,0,0,0-.45-2.5,2.22,2.22,0,0,0-1.82-.65m-1.37-3.42h1.72a1.73,1.73,0,0,0,1.22-.37,2.21,2.21,0,0,0,.54-1.27,16.81,16.81,0,0,0,.16-2.75v-.18a7.42,7.42,0,0,0-.39-3c-.26-.47-.85-.71-1.79-.71H265.2Z" class="cls-1"/>
      <path style="opacity: 1;" data-index="8" d="M289.4,278.15a5.47,5.47,0,0,1-4.74,2,5.54,5.54,0,0,1-4.78-2.05q-1.53-2.06-1.53-6.19V259q0-7.78,6.36-7.79,3.29,0,4.73,2a9.82,9.82,0,0,1,1.44,5.81v13c0,2.77-.49,4.83-1.48,6.2m-6.32-2.68a1.7,1.7,0,0,0,3.1,0,11,11,0,0,0,.37-3.45V258.8a8.42,8.42,0,0,0-.38-2.94,1.45,1.45,0,0,0-1.48-.93,1.58,1.58,0,0,0-1.55.93,7.27,7.27,0,0,0-.44,2.92V272a10.91,10.91,0,0,0,.38,3.47" class="cls-1"/>
      <path style="opacity: 1;" data-index="9" d="M295.09,279.87l4-28.33h5.7l4.29,28.33h-4l-.68-5.06h-4.57l-.61,5.06Zm8.88-8.52-1.9-14.23H302l-1.74,14.23Z" class="cls-1"/>
      <path data-index="10" d="M313.1,271.9v-2.53h4.09v2.85a9.79,9.79,0,0,0,.4,3.33,1.5,1.5,0,0,0,1.52.95,1.45,1.45,0,0,0,1.47-.78,6.72,6.72,0,0,0,.36-2.58,7,7,0,0,0-.64-3.11,10.78,10.78,0,0,0-2.05-2.78l-2.09-2.16a13.17,13.17,0,0,1-2.28-3.17,8.47,8.47,0,0,1-.81-3.8,8.3,8.3,0,0,1,1.35-5.21c.91-1.14,2.45-1.71,4.66-1.71s3.68.66,4.46,2a11.59,11.59,0,0,1,1.17,5.8v1.76h-4v-2a8.73,8.73,0,0,0-.35-3,1.34,1.34,0,0,0-1.36-.89,1.61,1.61,0,0,0-1.45.68,3.76,3.76,0,0,0-.44,2,4.42,4.42,0,0,0,.45,2.16,11.69,11.69,0,0,0,1.62,2.06l2.34,2.53a15,15,0,0,1,2.65,3.85,10.11,10.11,0,0,1,.89,4.25q0,4-1.34,5.87t-4.67,1.9q-3.35,0-4.65-2.12a11.74,11.74,0,0,1-1.32-6.17" class="cls-1"/>
      <polygon points="331.26 279.87 331.26 255.27 327.95 255.27 327.95 251.54 338.75 251.54 338.75 255.27 335.56 255.27 335.56 279.87 331.26 279.87" class="cls-1"/>
      <polygon points="342.71 279.87 342.71 251.54 352.21 251.54 352.21 255.26 347.03 255.26 347.03 263.5 351.95 263.5 351.95 267.14 347.03 267.14 347.03 276.15 352.4 276.15 352.4 279.87 342.71 279.87" class="cls-1"/>
      <path data-index="11" d="M363.13,266.56l-1.38-.07v13.38h-4.32V251.54h7.13a5.22,5.22,0,0,1,3.32.89,4.27,4.27,0,0,1,1.44,2.5,20.42,20.42,0,0,1,.35,4.18,11.09,11.09,0,0,1-.55,3.94,3.06,3.06,0,0,1-2,1.82,2.6,2.6,0,0,1,2,2q.58,1.72.58,7.17a48.56,48.56,0,0,0,.16,5.85h-4.31c-.11-.22-.16-3.6-.16-10.16a4.68,4.68,0,0,0-.45-2.5,2.22,2.22,0,0,0-1.82-.65m-1.37-3.42h1.73a1.7,1.7,0,0,0,1.21-.37,2.21,2.21,0,0,0,.55-1.27,18.33,18.33,0,0,0,.15-2.75v-.18a7.42,7.42,0,0,0-.39-3c-.25-.47-.85-.71-1.78-.71h-1.47Z" class="cls-1"/>
      <polygon points="377.85 279.87 377.85 268.55 373.1 251.54 377.22 251.54 380.02 262.13 380.08 262.13 382.58 251.54 386.69 251.54 382.16 268.55 382.16 279.87 377.85 279.87" class="cls-1"/>
      <polygon points="215.47 224.49 226.65 224.49 213.75 146.46 200.72 146.46 188.89 224.49 200.15 224.49 202.11 210.12 213.33 210.12 215.47 224.49" class="cls-1"/>
      <path style="opacity: 1;" data-index="12" d="M121.05,178.88a40.55,40.55,0,0,0,1.45-12.1v-1.86c-.07-7.1-1.32-12.24-3.72-15.28s-7-4.63-13.66-4.63H89v41h3.43a11.57,11.57,0,0,0-3.25,5.15,40.64,40.64,0,0,0-1.44,12.1v1.87c.06,7.09,1.31,12.23,3.71,15.27s7,4.64,13.66,4.64h16.1V184H117.8a11.66,11.66,0,0,0,3.25-5.16m-11.8,1.22a6.59,6.59,0,0,1-3.84.83h-5.16V154.38h4.43a8.76,8.76,0,0,1,4,.72c1.78.94,2.68,4.19,2.68,9.67v2.69a55.86,55.86,0,0,1-.53,9.19,5.63,5.63,0,0,1-1.58,3.45M98.89,202.59a55.71,55.71,0,0,1,.53-9.18c.33-1.75.86-2.91,1.58-3.45a6.52,6.52,0,0,1,3.84-.84H110v26.55h-4.43a8.69,8.69,0,0,1-4-.72c-1.78-.93-2.69-4.19-2.69-9.67Z" class="cls-1"/>
      <polygon points="336.42 146.85 323.91 146.85 307.4 181.84 307.4 146.85 295.78 146.85 295.78 225.05 307.4 225.05 307.4 201.69 313.72 189.87 327.21 225.05 339.01 225.05 320.84 178.95 336.42 146.85" class="cls-1"/>
      <polygon points="154.91 146.46 143.28 146.46 143.28 224.49 168.81 224.49 168.81 214.39 154.91 214.39 154.91 146.46" class="cls-1"/>
      <path style="opacity: 1;" data-index="13" d="M265.93,201.08c0,5.52-.37,9.39-1.1,11.51a3.18,3.18,0,0,1-3.34,2.48,3.26,3.26,0,0,1-3.39-2.47c-.75-2.11-1.13-6-1.13-11.48V168.55c0-4.62.42-8,1.24-10.07a3.51,3.51,0,0,1,3.6-2.48,3.18,3.18,0,0,1,2,.56,5.37,5.37,0,0,1,1.41,2.67c.33,1.07.72,3.56.72,9.36v7.82H277.4v-7.78a44.58,44.58,0,0,0-1.69-13.52c-2.08-6.3-6.76-9.51-13.9-9.55-5,0-9,1.59-11.64,4.62a19.07,19.07,0,0,0-3.35,6.36c-1,2.86-1.49,7.12-1.49,13v31.34c0,7.94,1.22,14,3.62,18,2.53,4.27,6.79,6.44,12.65,6.44s10.06-2.12,12.47-6.28c2.3-4,3.42-9.9,3.42-18.12V193.3H265.93Z" class="cls-1"/>
    </g>
  </g>
</svg>